# xmcd
# 
# Track frame offsets:
#     150
#     19174
#     40831
#     63019
# 
# Disc length: 955
# 
# Revision: 0
# Processed by: cddbd v1.5.2PL0 Copyright (c) Steve Scherf et al.
# Submitted via: fre:ac v1.0.17
# 
DISCID=2703b904
DTITLE=ELISA - そばにいるよ
DYEAR=2013
DGENRE=Anime
TTITLE0=そばにいるよ
TTITLE1=エマージュ
TTITLE2=for us
TTITLE3=そばにいるよ (Instrumental)
EXTD=
EXTT0=
EXTT1=
EXTT2=
EXTT3=
PLAYORDER=
